<svg xmlns="http://www.w3.org/2000/svg" xmlns:xlink="http://www.w3.org/1999/xlink" width="500" zoomAndPan="magnify" viewBox="0 0 375 374.999991" height="500" preserveAspectRatio="xMidYMid meet" version="1.0"><defs><g/></defs><rect x="-37.5" width="450" fill="#ffffff" y="-37.499999" height="449.999989" fill-opacity="1"/><rect x="-37.5" width="450" fill="#f1cdc6" y="-37.499999" height="449.999989" fill-opacity="1"/><g fill="#fff9ef" fill-opacity="1"><g transform="translate(22.484889, 188.094075)"><g><path d="M 15.753906 -35.5 C 19.535156 -34.449219 25.941406 -34.972656 28.042969 -36.445312 L 28.777344 -36.96875 L 27.621094 -37.496094 C 26.992188 -37.703125 24.367188 -38.335938 21.84375 -38.859375 C 16.070312 -40.015625 12.078125 -41.273438 11.132812 -42.21875 C 10.503906 -42.851562 10.398438 -43.269531 10.609375 -45.582031 C 10.710938 -47.785156 10.921875 -48.628906 12.183594 -51.148438 C 13.96875 -54.824219 16.277344 -57.871094 20.058594 -61.441406 C 33.921875 -74.671875 53.25 -84.019531 73.414062 -87.277344 C 78.769531 -88.222656 89.796875 -88.222656 92.632812 -87.382812 C 94 -86.855469 94.523438 -86.542969 94.523438 -86.121094 C 94.523438 -85.175781 91.582031 -80.34375 89.167969 -77.40625 C 86.75 -74.570312 79.820312 -67.53125 75.304688 -63.75 C 69.105469 -58.289062 52.722656 -45.6875 52.722656 -46.421875 C 52.722656 -46.738281 56.292969 -52.511719 58.289062 -55.453125 C 59.863281 -57.871094 62.28125 -61.125 65.851562 -65.640625 C 67.007812 -67.21875 67.53125 -68.898438 66.796875 -68.898438 C 66.585938 -68.898438 66.480469 -69.003906 66.585938 -69.210938 C 66.691406 -69.421875 66.273438 -69.84375 65.640625 -70.261719 C 65.011719 -70.683594 64.277344 -71.523438 64.066406 -72.046875 C 63.75 -72.886719 63.539062 -72.992188 62.28125 -72.992188 C 58.816406 -72.992188 53.773438 -68.792969 47.15625 -60.496094 C 44.953125 -57.765625 40.433594 -51.042969 38.335938 -47.472656 C 33.398438 -38.859375 30.039062 -27.097656 30.039062 -18.273438 C 30.039062 -11.132812 30.984375 -7.667969 32.875 -7.667969 C 33.503906 -7.773438 33.820312 -7.5625 33.820312 -7.246094 C 33.820312 -7.035156 34.027344 -6.828125 34.132812 -7.035156 C 34.34375 -7.140625 34.554688 -6.828125 34.554688 -6.40625 C 34.554688 -5.777344 34.765625 -5.460938 35.5 -5.144531 C 37.179688 -4.621094 37.914062 -5.777344 38.964844 -10.710938 C 40.121094 -16.175781 42.117188 -24.050781 42.535156 -25.207031 C 42.957031 -26.046875 44.007812 -26.675781 48.3125 -28.988281 C 54.089844 -32.03125 57.765625 -33.398438 64.589844 -34.867188 C 68.371094 -35.605469 69.84375 -35.8125 75.09375 -35.8125 C 78.347656 -35.8125 81.183594 -35.707031 81.394531 -35.5 C 82.234375 -34.765625 74.359375 -26.152344 68.476562 -21.53125 C 60.285156 -15.019531 49.675781 -8.71875 41.066406 -5.355469 C 29.828125 -0.945312 21.742188 0 15.230469 -2.207031 C 11.65625 -3.359375 10.816406 -4.097656 11.132812 -5.566406 C 11.238281 -6.40625 11.238281 -6.511719 10.710938 -6.40625 C 10.398438 -6.195312 10.1875 -6.300781 10.292969 -6.511719 C 10.398438 -6.617188 10.398438 -6.828125 10.1875 -6.828125 C 9.976562 -6.828125 9.976562 -7.035156 10.082031 -7.351562 C 10.292969 -8.085938 8.507812 -7.878906 7.980469 -7.035156 C 7.457031 -6.195312 8.820312 -3.78125 11.867188 0.105469 C 15.332031 4.621094 17.75 6.300781 22.6875 7.667969 C 26.152344 8.613281 33.609375 8.296875 38.648438 7.140625 C 51.253906 4.097656 65.746094 -3.046875 75.828125 -11.132812 C 79.714844 -14.285156 85.070312 -19.746094 86.960938 -22.582031 C 90.953125 -28.460938 91.164062 -32.875 87.382812 -37.390625 C 86.648438 -38.230469 85.804688 -39.488281 85.386719 -40.332031 C 83.914062 -42.851562 81.082031 -44.007812 75.722656 -44.53125 L 72.574219 -44.742188 L 76.667969 -47.683594 C 91.6875 -58.816406 101.664062 -70.367188 103.347656 -78.664062 C 104.082031 -82.128906 103.347656 -85.28125 101.035156 -88.957031 C 100.300781 -90.007812 99.667969 -91.269531 99.667969 -91.582031 C 99.667969 -92.632812 97.675781 -95.363281 95.890625 -96.519531 C 94.839844 -97.148438 92.84375 -97.988281 91.269531 -98.410156 C 88.851562 -99.144531 88.011719 -99.144531 82.339844 -99.039062 C 77.71875 -98.828125 74.988281 -98.621094 71.417969 -97.882812 C 58.605469 -95.46875 46.210938 -91.058594 35.707031 -85.070312 C 19.535156 -75.933594 7.035156 -63.4375 4.097656 -53.667969 C 2.625 -48.417969 3.78125 -44.425781 8.085938 -40.226562 C 10.921875 -37.496094 12.917969 -36.234375 15.753906 -35.5 Z M 36.550781 -26.570312 C 36.339844 -25.835938 35.8125 -23.527344 35.394531 -21.425781 C 34.765625 -18.90625 34.554688 -18.273438 34.660156 -19.535156 C 34.972656 -22.160156 36.234375 -27.726562 36.550781 -27.726562 C 36.757812 -27.726562 36.757812 -27.203125 36.550781 -26.570312 Z M 37.597656 -35.917969 C 37.597656 -36.652344 40.539062 -42.640625 42.640625 -46.105469 C 45.160156 -50.519531 50.414062 -58.183594 51.882812 -59.863281 L 53.039062 -61.230469 L 51.777344 -59.339844 C 46.316406 -51.566406 41.695312 -44.109375 39.804688 -39.699219 C 38.441406 -36.652344 37.597656 -35.183594 37.597656 -35.917969 Z M 42.535156 -41.90625 C 40.539062 -38.125 39.699219 -36.863281 39.699219 -37.597656 C 39.699219 -38.125 43.164062 -44.742188 45.476562 -48.523438 C 49.78125 -55.558594 53.5625 -60.601562 57.449219 -64.800781 C 59.550781 -67.007812 59.023438 -66.0625 55.875 -62.28125 C 51.148438 -56.398438 46 -48.628906 42.535156 -41.90625 Z M 43.796875 -40.855469 C 43.164062 -39.488281 42.746094 -39.070312 42.746094 -39.59375 C 42.746094 -40.121094 45.792969 -45.582031 48.417969 -49.675781 C 53.457031 -57.660156 57.449219 -63.015625 61.125 -66.480469 L 63.121094 -68.371094 L 61.230469 -66.273438 C 57.765625 -62.175781 56.398438 -60.496094 53.039062 -55.664062 C 49.78125 -51.042969 45.371094 -43.796875 43.796875 -40.855469 Z M 49.363281 -44.214844 C 49.046875 -44.214844 55.875 -55.347656 56.503906 -55.769531 C 56.714844 -55.875 55.980469 -54.613281 55.035156 -53.039062 C 53.984375 -51.460938 52.40625 -48.835938 51.359375 -47.261719 C 50.414062 -45.582031 49.46875 -44.214844 49.363281 -44.214844 Z M 73.9375 -16.175781 C 72.152344 -14.808594 71.628906 -14.492188 72.574219 -15.332031 C 79.714844 -21.84375 81.183594 -23.316406 84.125 -26.886719 C 84.441406 -27.308594 84.335938 -26.886719 83.8125 -26.046875 C 83.390625 -25.207031 81.710938 -23.105469 79.925781 -21.425781 C 78.246094 -19.746094 75.515625 -17.328125 73.9375 -16.175781 Z M 80.871094 -21.003906 C 80.34375 -20.585938 79.925781 -20.164062 79.820312 -20.164062 C 79.714844 -20.164062 80.03125 -20.585938 80.449219 -21.003906 C 80.976562 -21.53125 81.394531 -21.949219 81.5 -21.949219 C 81.605469 -21.949219 81.289062 -21.53125 80.871094 -21.003906 Z M 86.648438 -24.996094 C 87.382812 -25.730469 86.226562 -23.839844 84.546875 -21.636719 C 83.8125 -20.691406 83.074219 -19.851562 82.972656 -19.851562 C 82.761719 -19.851562 85.910156 -24.367188 86.648438 -24.996094 Z M 84.964844 -30.773438 C 84.964844 -29.828125 82.339844 -26.363281 79.714844 -23.632812 C 78.246094 -22.160156 76.25 -20.269531 75.304688 -19.535156 C 74.042969 -18.484375 74.570312 -19.113281 76.984375 -21.636719 C 80.871094 -25.625 81.5 -26.363281 83.496094 -29.300781 C 84.335938 -30.351562 84.964844 -31.085938 84.964844 -30.773438 Z M 83.914062 -31.71875 C 83.914062 -31.085938 81.921875 -28.148438 80.34375 -26.363281 C 79.609375 -25.417969 78.769531 -24.679688 78.664062 -24.679688 C 78.558594 -24.679688 79.085938 -25.417969 79.925781 -26.464844 C 80.765625 -27.410156 82.027344 -29.09375 82.65625 -30.140625 C 83.390625 -31.191406 83.914062 -31.824219 83.914062 -31.71875 Z M 88.328125 -74.148438 C 88.851562 -74.570312 88.851562 -74.570312 88.433594 -73.9375 C 88.011719 -73.414062 87.695312 -73.203125 87.695312 -73.519531 C 87.695312 -73.625 88.011719 -73.832031 88.328125 -74.148438 Z M 84.757812 -66.273438 C 86.855469 -68.371094 89.796875 -71.523438 91.269531 -73.308594 C 92.632812 -75.09375 93.894531 -76.355469 93.894531 -76.25 C 93.894531 -75.515625 89.273438 -70.15625 85.703125 -66.585938 C 83.390625 -64.277344 81.394531 -62.386719 81.183594 -62.386719 C 81.082031 -62.386719 82.65625 -64.171875 84.757812 -66.273438 Z M 73.308594 -54.296875 C 74.148438 -55.242188 74.359375 -55.347656 74.359375 -54.929688 C 74.253906 -54.824219 73.832031 -54.402344 73.414062 -53.984375 L 72.46875 -53.351562 Z M 65.117188 -45.792969 C 64.695312 -45.265625 64.382812 -45.054688 64.382812 -45.371094 C 64.382812 -45.476562 64.589844 -45.6875 65.011719 -46 C 65.535156 -46.421875 65.535156 -46.421875 65.117188 -45.792969 Z M 72.78125 -51.359375 C 67.53125 -47.472656 65.746094 -46.210938 65.746094 -46.421875 C 65.746094 -46.527344 67.21875 -47.683594 69.105469 -49.046875 C 77.089844 -55.035156 82.128906 -59.339844 88.011719 -65.011719 C 90.636719 -67.425781 92.316406 -69.003906 92.003906 -68.582031 C 87.90625 -63.539062 82.445312 -58.605469 72.78125 -51.359375 Z M 82.972656 -58.183594 C 82.445312 -57.660156 82.234375 -57.449219 82.234375 -57.765625 C 82.234375 -57.765625 82.445312 -58.078125 82.761719 -58.289062 C 83.390625 -58.710938 83.390625 -58.710938 82.972656 -58.183594 Z M 85.703125 -60.601562 C 85.28125 -60.074219 84.964844 -59.863281 84.964844 -60.074219 C 84.964844 -60.179688 85.175781 -60.496094 85.597656 -60.707031 C 86.121094 -61.125 86.121094 -61.125 85.703125 -60.601562 Z M 96.308594 -68.371094 C 95.257812 -67.007812 92.632812 -63.855469 91.164062 -62.28125 C 90.324219 -61.335938 88.957031 -60.179688 88.222656 -59.550781 C 86.960938 -58.605469 86.960938 -58.605469 88.433594 -60.074219 C 89.273438 -60.914062 91.371094 -63.121094 93.054688 -65.011719 C 96.203125 -68.582031 97.042969 -69.527344 96.308594 -68.371094 Z M 95.890625 -76.355469 C 93.894531 -72.679688 85.910156 -64.171875 79.503906 -58.917969 C 72.886719 -53.5625 73.097656 -53.984375 80.136719 -60.285156 C 85.703125 -65.117188 91.6875 -71.417969 94.207031 -74.777344 C 96.097656 -77.195312 96.625 -77.71875 95.890625 -76.355469 Z M 30.984375 -75.515625 C 31.507812 -75.933594 31.507812 -75.933594 31.085938 -75.304688 C 30.878906 -74.988281 30.5625 -74.777344 30.5625 -74.777344 C 30.246094 -74.777344 30.457031 -74.988281 30.984375 -75.515625 Z M 29.511719 -74.464844 L 28.671875 -73.625 C 28.148438 -73.203125 26.570312 -71.941406 24.996094 -70.789062 C 21.742188 -68.265625 14.914062 -61.546875 12.917969 -58.816406 C 12.078125 -57.660156 11.132812 -56.292969 10.710938 -55.875 L 10.1875 -55.035156 L 10.609375 -56.085938 C 12.5 -60.074219 21.84375 -69.316406 28.355469 -73.625 Z M 7.457031 -54.613281 C 7.457031 -55.140625 9.976562 -59.339844 11.027344 -60.496094 L 11.972656 -61.546875 L 11.027344 -60.179688 C 10.503906 -59.550781 9.453125 -57.871094 8.71875 -56.609375 C 7.980469 -55.347656 7.457031 -54.507812 7.457031 -54.613281 Z M 7.980469 -53.457031 C 8.296875 -54.824219 10.082031 -57.871094 11.65625 -59.96875 C 13.757812 -62.59375 17.644531 -66.796875 18.484375 -67.21875 C 18.90625 -67.425781 17.960938 -66.273438 16.277344 -64.589844 C 14.703125 -62.910156 12.707031 -60.601562 11.867188 -59.550781 C 11.132812 -58.5 9.871094 -56.503906 9.136719 -55.140625 C 8.296875 -53.773438 7.773438 -53.039062 7.980469 -53.457031 Z M 7.980469 -53.457031 "/></g></g></g><g fill="#fff9ef" fill-opacity="1"><g transform="translate(129.186861, 188.094075)"><g><path d="M 15.753906 -35.5 C 19.535156 -34.449219 25.941406 -34.972656 28.042969 -36.445312 L 28.777344 -36.96875 L 27.621094 -37.496094 C 26.992188 -37.703125 24.367188 -38.335938 21.84375 -38.859375 C 16.070312 -40.015625 12.078125 -41.273438 11.132812 -42.21875 C 10.503906 -42.851562 10.398438 -43.269531 10.609375 -45.582031 C 10.710938 -47.785156 10.921875 -48.628906 12.183594 -51.148438 C 13.96875 -54.824219 16.277344 -57.871094 20.058594 -61.441406 C 33.921875 -74.671875 53.25 -84.019531 73.414062 -87.277344 C 78.769531 -88.222656 89.796875 -88.222656 92.632812 -87.382812 C 94 -86.855469 94.523438 -86.542969 94.523438 -86.121094 C 94.523438 -85.175781 91.582031 -80.34375 89.167969 -77.40625 C 86.75 -74.570312 79.820312 -67.53125 75.304688 -63.75 C 69.105469 -58.289062 52.722656 -45.6875 52.722656 -46.421875 C 52.722656 -46.738281 56.292969 -52.511719 58.289062 -55.453125 C 59.863281 -57.871094 62.28125 -61.125 65.851562 -65.640625 C 67.007812 -67.21875 67.53125 -68.898438 66.796875 -68.898438 C 66.585938 -68.898438 66.480469 -69.003906 66.585938 -69.210938 C 66.691406 -69.421875 66.273438 -69.84375 65.640625 -70.261719 C 65.011719 -70.683594 64.277344 -71.523438 64.066406 -72.046875 C 63.75 -72.886719 63.539062 -72.992188 62.28125 -72.992188 C 58.816406 -72.992188 53.773438 -68.792969 47.15625 -60.496094 C 44.953125 -57.765625 40.433594 -51.042969 38.335938 -47.472656 C 33.398438 -38.859375 30.039062 -27.097656 30.039062 -18.273438 C 30.039062 -11.132812 30.984375 -7.667969 32.875 -7.667969 C 33.503906 -7.773438 33.820312 -7.5625 33.820312 -7.246094 C 33.820312 -7.035156 34.027344 -6.828125 34.132812 -7.035156 C 34.34375 -7.140625 34.554688 -6.828125 34.554688 -6.40625 C 34.554688 -5.777344 34.765625 -5.460938 35.5 -5.144531 C 37.179688 -4.621094 37.914062 -5.777344 38.964844 -10.710938 C 40.121094 -16.175781 42.117188 -24.050781 42.535156 -25.207031 C 42.957031 -26.046875 44.007812 -26.675781 48.3125 -28.988281 C 54.089844 -32.03125 57.765625 -33.398438 64.589844 -34.867188 C 68.371094 -35.605469 69.84375 -35.8125 75.09375 -35.8125 C 78.347656 -35.8125 81.183594 -35.707031 81.394531 -35.5 C 82.234375 -34.765625 74.359375 -26.152344 68.476562 -21.53125 C 60.285156 -15.019531 49.675781 -8.71875 41.066406 -5.355469 C 29.828125 -0.945312 21.742188 0 15.230469 -2.207031 C 11.65625 -3.359375 10.816406 -4.097656 11.132812 -5.566406 C 11.238281 -6.40625 11.238281 -6.511719 10.710938 -6.40625 C 10.398438 -6.195312 10.1875 -6.300781 10.292969 -6.511719 C 10.398438 -6.617188 10.398438 -6.828125 10.1875 -6.828125 C 9.976562 -6.828125 9.976562 -7.035156 10.082031 -7.351562 C 10.292969 -8.085938 8.507812 -7.878906 7.980469 -7.035156 C 7.457031 -6.195312 8.820312 -3.78125 11.867188 0.105469 C 15.332031 4.621094 17.75 6.300781 22.6875 7.667969 C 26.152344 8.613281 33.609375 8.296875 38.648438 7.140625 C 51.253906 4.097656 65.746094 -3.046875 75.828125 -11.132812 C 79.714844 -14.285156 85.070312 -19.746094 86.960938 -22.582031 C 90.953125 -28.460938 91.164062 -32.875 87.382812 -37.390625 C 86.648438 -38.230469 85.804688 -39.488281 85.386719 -40.332031 C 83.914062 -42.851562 81.082031 -44.007812 75.722656 -44.53125 L 72.574219 -44.742188 L 76.667969 -47.683594 C 91.6875 -58.816406 101.664062 -70.367188 103.347656 -78.664062 C 104.082031 -82.128906 103.347656 -85.28125 101.035156 -88.957031 C 100.300781 -90.007812 99.667969 -91.269531 99.667969 -91.582031 C 99.667969 -92.632812 97.675781 -95.363281 95.890625 -96.519531 C 94.839844 -97.148438 92.84375 -97.988281 91.269531 -98.410156 C 88.851562 -99.144531 88.011719 -99.144531 82.339844 -99.039062 C 77.71875 -98.828125 74.988281 -98.621094 71.417969 -97.882812 C 58.605469 -95.46875 46.210938 -91.058594 35.707031 -85.070312 C 19.535156 -75.933594 7.035156 -63.4375 4.097656 -53.667969 C 2.625 -48.417969 3.78125 -44.425781 8.085938 -40.226562 C 10.921875 -37.496094 12.917969 -36.234375 15.753906 -35.5 Z M 36.550781 -26.570312 C 36.339844 -25.835938 35.8125 -23.527344 35.394531 -21.425781 C 34.765625 -18.90625 34.554688 -18.273438 34.660156 -19.535156 C 34.972656 -22.160156 36.234375 -27.726562 36.550781 -27.726562 C 36.757812 -27.726562 36.757812 -27.203125 36.550781 -26.570312 Z M 37.597656 -35.917969 C 37.597656 -36.652344 40.539062 -42.640625 42.640625 -46.105469 C 45.160156 -50.519531 50.414062 -58.183594 51.882812 -59.863281 L 53.039062 -61.230469 L 51.777344 -59.339844 C 46.316406 -51.566406 41.695312 -44.109375 39.804688 -39.699219 C 38.441406 -36.652344 37.597656 -35.183594 37.597656 -35.917969 Z M 42.535156 -41.90625 C 40.539062 -38.125 39.699219 -36.863281 39.699219 -37.597656 C 39.699219 -38.125 43.164062 -44.742188 45.476562 -48.523438 C 49.78125 -55.558594 53.5625 -60.601562 57.449219 -64.800781 C 59.550781 -67.007812 59.023438 -66.0625 55.875 -62.28125 C 51.148438 -56.398438 46 -48.628906 42.535156 -41.90625 Z M 43.796875 -40.855469 C 43.164062 -39.488281 42.746094 -39.070312 42.746094 -39.59375 C 42.746094 -40.121094 45.792969 -45.582031 48.417969 -49.675781 C 53.457031 -57.660156 57.449219 -63.015625 61.125 -66.480469 L 63.121094 -68.371094 L 61.230469 -66.273438 C 57.765625 -62.175781 56.398438 -60.496094 53.039062 -55.664062 C 49.78125 -51.042969 45.371094 -43.796875 43.796875 -40.855469 Z M 49.363281 -44.214844 C 49.046875 -44.214844 55.875 -55.347656 56.503906 -55.769531 C 56.714844 -55.875 55.980469 -54.613281 55.035156 -53.039062 C 53.984375 -51.460938 52.40625 -48.835938 51.359375 -47.261719 C 50.414062 -45.582031 49.46875 -44.214844 49.363281 -44.214844 Z M 73.9375 -16.175781 C 72.152344 -14.808594 71.628906 -14.492188 72.574219 -15.332031 C 79.714844 -21.84375 81.183594 -23.316406 84.125 -26.886719 C 84.441406 -27.308594 84.335938 -26.886719 83.8125 -26.046875 C 83.390625 -25.207031 81.710938 -23.105469 79.925781 -21.425781 C 78.246094 -19.746094 75.515625 -17.328125 73.9375 -16.175781 Z M 80.871094 -21.003906 C 80.34375 -20.585938 79.925781 -20.164062 79.820312 -20.164062 C 79.714844 -20.164062 80.03125 -20.585938 80.449219 -21.003906 C 80.976562 -21.53125 81.394531 -21.949219 81.5 -21.949219 C 81.605469 -21.949219 81.289062 -21.53125 80.871094 -21.003906 Z M 86.648438 -24.996094 C 87.382812 -25.730469 86.226562 -23.839844 84.546875 -21.636719 C 83.8125 -20.691406 83.074219 -19.851562 82.972656 -19.851562 C 82.761719 -19.851562 85.910156 -24.367188 86.648438 -24.996094 Z M 84.964844 -30.773438 C 84.964844 -29.828125 82.339844 -26.363281 79.714844 -23.632812 C 78.246094 -22.160156 76.25 -20.269531 75.304688 -19.535156 C 74.042969 -18.484375 74.570312 -19.113281 76.984375 -21.636719 C 80.871094 -25.625 81.5 -26.363281 83.496094 -29.300781 C 84.335938 -30.351562 84.964844 -31.085938 84.964844 -30.773438 Z M 83.914062 -31.71875 C 83.914062 -31.085938 81.921875 -28.148438 80.34375 -26.363281 C 79.609375 -25.417969 78.769531 -24.679688 78.664062 -24.679688 C 78.558594 -24.679688 79.085938 -25.417969 79.925781 -26.464844 C 80.765625 -27.410156 82.027344 -29.09375 82.65625 -30.140625 C 83.390625 -31.191406 83.914062 -31.824219 83.914062 -31.71875 Z M 88.328125 -74.148438 C 88.851562 -74.570312 88.851562 -74.570312 88.433594 -73.9375 C 88.011719 -73.414062 87.695312 -73.203125 87.695312 -73.519531 C 87.695312 -73.625 88.011719 -73.832031 88.328125 -74.148438 Z M 84.757812 -66.273438 C 86.855469 -68.371094 89.796875 -71.523438 91.269531 -73.308594 C 92.632812 -75.09375 93.894531 -76.355469 93.894531 -76.25 C 93.894531 -75.515625 89.273438 -70.15625 85.703125 -66.585938 C 83.390625 -64.277344 81.394531 -62.386719 81.183594 -62.386719 C 81.082031 -62.386719 82.65625 -64.171875 84.757812 -66.273438 Z M 73.308594 -54.296875 C 74.148438 -55.242188 74.359375 -55.347656 74.359375 -54.929688 C 74.253906 -54.824219 73.832031 -54.402344 73.414062 -53.984375 L 72.46875 -53.351562 Z M 65.117188 -45.792969 C 64.695312 -45.265625 64.382812 -45.054688 64.382812 -45.371094 C 64.382812 -45.476562 64.589844 -45.6875 65.011719 -46 C 65.535156 -46.421875 65.535156 -46.421875 65.117188 -45.792969 Z M 72.78125 -51.359375 C 67.53125 -47.472656 65.746094 -46.210938 65.746094 -46.421875 C 65.746094 -46.527344 67.21875 -47.683594 69.105469 -49.046875 C 77.089844 -55.035156 82.128906 -59.339844 88.011719 -65.011719 C 90.636719 -67.425781 92.316406 -69.003906 92.003906 -68.582031 C 87.90625 -63.539062 82.445312 -58.605469 72.78125 -51.359375 Z M 82.972656 -58.183594 C 82.445312 -57.660156 82.234375 -57.449219 82.234375 -57.765625 C 82.234375 -57.765625 82.445312 -58.078125 82.761719 -58.289062 C 83.390625 -58.710938 83.390625 -58.710938 82.972656 -58.183594 Z M 85.703125 -60.601562 C 85.28125 -60.074219 84.964844 -59.863281 84.964844 -60.074219 C 84.964844 -60.179688 85.175781 -60.496094 85.597656 -60.707031 C 86.121094 -61.125 86.121094 -61.125 85.703125 -60.601562 Z M 96.308594 -68.371094 C 95.257812 -67.007812 92.632812 -63.855469 91.164062 -62.28125 C 90.324219 -61.335938 88.957031 -60.179688 88.222656 -59.550781 C 86.960938 -58.605469 86.960938 -58.605469 88.433594 -60.074219 C 89.273438 -60.914062 91.371094 -63.121094 93.054688 -65.011719 C 96.203125 -68.582031 97.042969 -69.527344 96.308594 -68.371094 Z M 95.890625 -76.355469 C 93.894531 -72.679688 85.910156 -64.171875 79.503906 -58.917969 C 72.886719 -53.5625 73.097656 -53.984375 80.136719 -60.285156 C 85.703125 -65.117188 91.6875 -71.417969 94.207031 -74.777344 C 96.097656 -77.195312 96.625 -77.71875 95.890625 -76.355469 Z M 30.984375 -75.515625 C 31.507812 -75.933594 31.507812 -75.933594 31.085938 -75.304688 C 30.878906 -74.988281 30.5625 -74.777344 30.5625 -74.777344 C 30.246094 -74.777344 30.457031 -74.988281 30.984375 -75.515625 Z M 29.511719 -74.464844 L 28.671875 -73.625 C 28.148438 -73.203125 26.570312 -71.941406 24.996094 -70.789062 C 21.742188 -68.265625 14.914062 -61.546875 12.917969 -58.816406 C 12.078125 -57.660156 11.132812 -56.292969 10.710938 -55.875 L 10.1875 -55.035156 L 10.609375 -56.085938 C 12.5 -60.074219 21.84375 -69.316406 28.355469 -73.625 Z M 7.457031 -54.613281 C 7.457031 -55.140625 9.976562 -59.339844 11.027344 -60.496094 L 11.972656 -61.546875 L 11.027344 -60.179688 C 10.503906 -59.550781 9.453125 -57.871094 8.71875 -56.609375 C 7.980469 -55.347656 7.457031 -54.507812 7.457031 -54.613281 Z M 7.980469 -53.457031 C 8.296875 -54.824219 10.082031 -57.871094 11.65625 -59.96875 C 13.757812 -62.59375 17.644531 -66.796875 18.484375 -67.21875 C 18.90625 -67.425781 17.960938 -66.273438 16.277344 -64.589844 C 14.703125 -62.910156 12.707031 -60.601562 11.867188 -59.550781 C 11.132812 -58.5 9.871094 -56.503906 9.136719 -55.140625 C 8.296875 -53.773438 7.773438 -53.039062 7.980469 -53.457031 Z M 7.980469 -53.457031 "/></g></g></g><g fill="#fff9ef" fill-opacity="1"><g transform="translate(235.888833, 188.094075)"><g><path d="M 67.53125 -25.519531 C 64.382812 -21.214844 57.765625 -14.179688 57.027344 -14.179688 C 56.503906 -14.179688 56.609375 -19.21875 57.132812 -23.421875 C 58.078125 -30.667969 61.230469 -43.0625 64.90625 -54.195312 C 66.375 -58.816406 67.636719 -62.804688 67.636719 -63.226562 C 67.636719 -63.539062 67.320312 -64.277344 66.902344 -64.695312 C 66.585938 -65.117188 66.0625 -65.746094 65.851562 -66.0625 C 65.535156 -66.375 65.011719 -66.691406 64.589844 -66.796875 C 64.171875 -66.902344 63.644531 -67.21875 63.332031 -67.53125 C 63.121094 -67.953125 62.699219 -68.058594 62.386719 -67.953125 C 61.964844 -67.742188 61.753906 -67.953125 61.753906 -68.582031 C 61.753906 -69.421875 61.441406 -69.632812 60.914062 -69.105469 C 60.707031 -68.898438 60.601562 -69.210938 60.601562 -69.84375 C 60.601562 -70.683594 60.390625 -71.101562 59.761719 -71.417969 C 59.023438 -71.734375 58.816406 -71.734375 58.605469 -71.3125 C 58.394531 -70.894531 58.183594 -70.894531 58.078125 -71.101562 C 57.449219 -71.941406 56.714844 -70.996094 55.664062 -68.160156 C 54.507812 -65.328125 53.5625 -63.226562 48.3125 -53.351562 C 40.75 -38.859375 31.824219 -25.3125 25.625 -18.800781 C 22.582031 -15.542969 22.476562 -15.753906 24.15625 -21.636719 C 26.363281 -29.09375 30.246094 -38.859375 35.078125 -49.046875 C 46 -72.046875 49.46875 -81.289062 49.046875 -86.855469 C 48.835938 -89.273438 47.367188 -91.792969 45.160156 -93.367188 C 44.320312 -94 43.269531 -95.046875 42.851562 -95.785156 C 41.589844 -97.675781 40.75 -98.304688 38.964844 -98.515625 C 36.652344 -98.726562 34.972656 -97.78125 29.933594 -93.054688 C 17.222656 -81.082031 7.351562 -68.058594 4.515625 -59.234375 C 2.625 -53.667969 3.046875 -48.941406 5.777344 -46 C 7.246094 -44.425781 10.1875 -42.640625 11.34375 -42.640625 C 11.867188 -42.640625 12.394531 -42.746094 12.394531 -42.851562 C 12.394531 -42.957031 11.867188 -43.480469 11.238281 -44.007812 C 9.976562 -45.160156 9.242188 -46.945312 9.347656 -49.046875 C 9.347656 -55.875 16.382812 -67.742188 26.570312 -77.929688 C 30.773438 -82.128906 36.757812 -86.648438 36.757812 -85.597656 C 36.757812 -84.441406 32.347656 -74.464844 26.464844 -62.386719 C 14.492188 -37.808594 9.976562 -25.101562 9.976562 -16.070312 C 9.976562 -13.128906 10.082031 -12.394531 10.710938 -11.132812 C 11.867188 -8.925781 14.386719 -6.933594 16.277344 -6.722656 C 17.328125 -6.617188 17.960938 -6.300781 18.273438 -5.882812 C 18.800781 -4.832031 21.003906 -3.570312 22.265625 -3.570312 C 22.894531 -3.570312 23.945312 -3.78125 24.679688 -4.199219 C 26.78125 -5.144531 30.984375 -9.664062 35.078125 -15.542969 C 37.179688 -18.589844 44.953125 -30.984375 44.953125 -31.402344 C 44.953125 -31.613281 45.054688 -31.71875 45.265625 -31.71875 C 45.371094 -31.71875 45.371094 -30.457031 45.054688 -28.882812 C 44.425781 -24.996094 44.320312 -18.589844 44.953125 -16.277344 C 45.6875 -13.234375 46.945312 -10.921875 49.046875 -8.71875 C 50.519531 -7.246094 51.359375 -6.617188 52.304688 -6.511719 C 53.039062 -6.300781 54.089844 -5.671875 54.929688 -4.832031 C 55.769531 -4.097656 56.925781 -3.253906 57.449219 -3.046875 C 59.234375 -2.3125 62.070312 -2.414062 64.171875 -3.359375 C 68.160156 -5.25 76.5625 -15.230469 87.695312 -31.507812 C 93.054688 -39.386719 101.140625 -54.296875 104.394531 -62.492188 C 108.597656 -73.097656 110.488281 -80.34375 110.488281 -85.804688 C 110.488281 -88.640625 110.382812 -89.0625 109.4375 -91.058594 C 108.808594 -92.214844 107.546875 -93.894531 106.707031 -94.734375 C 105.867188 -95.679688 104.605469 -97.042969 104.082031 -97.988281 C 102.609375 -99.878906 101.769531 -100.300781 99.566406 -100.089844 C 97.78125 -99.878906 96.414062 -99.039062 96.414062 -98.09375 C 96.414062 -97.148438 97.148438 -96.203125 97.675781 -96.414062 C 97.882812 -96.519531 98.199219 -96.414062 98.199219 -96.203125 C 98.199219 -95.992188 98.304688 -95.890625 98.515625 -95.992188 C 98.621094 -96.097656 98.726562 -95.785156 98.726562 -95.257812 C 98.726562 -94.523438 98.828125 -94.3125 99.460938 -94.105469 C 100.300781 -94 100.300781 -93.789062 100.195312 -91.898438 C 100.089844 -89.378906 99.039062 -85.070312 96.835938 -78.664062 C 93.472656 -69.003906 88.957031 -59.761719 82.445312 -49.046875 C 80.871094 -46.421875 78.140625 -41.800781 76.355469 -38.859375 C 72.679688 -32.664062 72.152344 -31.824219 67.53125 -25.519531 Z M 63.332031 -55.558594 C 64.382812 -58.605469 65.117188 -60.496094 65.011719 -59.96875 C 64.800781 -58.710938 61.441406 -49.152344 61.441406 -49.675781 C 61.441406 -49.886719 62.28125 -52.511719 63.332031 -55.558594 Z M 60.601562 -64.066406 C 60.707031 -64.382812 60.914062 -64.589844 61.019531 -64.484375 C 61.125 -64.382812 61.019531 -64.066406 60.808594 -63.855469 C 60.496094 -63.539062 60.390625 -63.539062 60.601562 -64.066406 Z M 59.023438 -41.484375 C 59.128906 -41.90625 59.128906 -42.011719 59.234375 -41.695312 C 59.339844 -41.484375 59.339844 -41.171875 59.234375 -41.066406 C 59.128906 -40.960938 59.023438 -41.171875 59.023438 -41.484375 Z M 58.710938 -40.121094 C 58.710938 -40.539062 58.816406 -40.644531 58.917969 -40.332031 C 59.023438 -40.121094 59.023438 -39.804688 58.917969 -39.699219 C 58.816406 -39.59375 58.710938 -39.804688 58.710938 -40.121094 Z M 7.351562 -56.714844 C 6.933594 -55.558594 6.511719 -54.195312 6.40625 -53.773438 C 6.300781 -53.144531 6.300781 -53.144531 6.195312 -53.878906 C 6.089844 -55.769531 9.765625 -63.855469 11.761719 -66.375 C 12.183594 -66.902344 12.183594 -66.691406 11.554688 -65.640625 C 9.765625 -62.59375 7.980469 -58.917969 7.351562 -56.714844 Z M 17.855469 -72.886719 C 15.859375 -70.367188 12.917969 -66.0625 11.34375 -63.226562 C 10.609375 -61.859375 9.347656 -59.445312 8.71875 -57.972656 C 8.085938 -56.398438 7.5625 -55.347656 7.5625 -55.558594 C 7.5625 -56.1875 9.558594 -60.808594 10.710938 -62.910156 C 12.8125 -66.585938 17.75 -73.625 18.695312 -74.148438 C 18.90625 -74.253906 18.484375 -73.726562 17.855469 -72.886719 Z M 19.953125 -75.410156 C 19.535156 -74.988281 19.007812 -74.570312 18.90625 -74.570312 C 18.90625 -74.570312 19.113281 -74.988281 19.535156 -75.410156 C 20.058594 -75.933594 20.480469 -76.25 20.585938 -76.25 C 20.691406 -76.25 20.375 -75.933594 19.953125 -75.410156 Z M 24.15625 -80.03125 C 22.371094 -78.140625 20.796875 -76.667969 20.691406 -76.667969 C 20.585938 -76.667969 21.949219 -78.140625 23.734375 -80.03125 C 25.519531 -81.921875 26.992188 -83.496094 27.097656 -83.496094 C 27.308594 -83.496094 25.941406 -81.921875 24.15625 -80.03125 Z M 27.515625 -42.640625 C 27.308594 -42.429688 27.097656 -42.324219 27.097656 -42.535156 C 27.097656 -42.640625 27.308594 -43.0625 27.515625 -43.375 C 27.621094 -43.691406 27.832031 -43.691406 27.832031 -43.480469 C 27.832031 -43.375 27.621094 -42.957031 27.515625 -42.640625 Z M 29.199219 -46.421875 C 28.988281 -46.210938 28.882812 -46.105469 28.882812 -46.316406 C 28.882812 -46.421875 28.988281 -46.839844 29.199219 -47.15625 C 29.40625 -47.367188 29.511719 -47.472656 29.511719 -47.261719 C 29.511719 -47.15625 29.40625 -46.738281 29.199219 -46.421875 Z M 31.613281 -51.777344 C 31.613281 -51.566406 31.296875 -51.042969 31.085938 -50.519531 C 30.773438 -50.097656 30.5625 -49.886719 30.5625 -50.097656 C 30.5625 -50.203125 30.773438 -50.726562 31.085938 -51.253906 C 31.296875 -51.671875 31.613281 -51.988281 31.613281 -51.777344 Z M 43.164062 -71.3125 C 43.269531 -71.3125 42.640625 -69.738281 41.90625 -67.847656 C 40.539062 -64.382812 36.128906 -55.035156 36.023438 -55.453125 C 36.023438 -55.558594 36.96875 -57.554688 38.019531 -60.074219 C 39.175781 -62.492188 40.75 -66.0625 41.484375 -67.953125 C 42.324219 -69.949219 43.0625 -71.417969 43.164062 -71.3125 Z M 29.300781 -57.871094 C 32.03125 -63.539062 35.5 -71.3125 37.074219 -74.988281 C 38.648438 -78.769531 40.015625 -81.710938 40.015625 -81.710938 C 40.226562 -81.5 38.335938 -76.460938 36.757812 -72.679688 C 35.917969 -70.789062 32.875 -64.277344 29.933594 -58.289062 C 26.992188 -52.199219 24.574219 -47.261719 24.472656 -47.15625 C 24.050781 -46.632812 24.996094 -48.730469 29.300781 -57.871094 Z M 23.527344 -45.371094 C 23.839844 -45.894531 24.050781 -46.105469 24.050781 -45.894531 C 24.050781 -45.792969 23.839844 -45.160156 23.527344 -44.742188 C 23.210938 -44.214844 23 -44.007812 23 -44.214844 C 23 -44.425781 23.210938 -44.953125 23.527344 -45.371094 Z M 14.285156 -17.328125 C 14.492188 -20.375 16.070312 -26.464844 18.484375 -32.875 C 20.796875 -39.070312 22.6875 -43.796875 22.894531 -43.585938 C 22.894531 -43.585938 22.054688 -41.273438 21.003906 -38.542969 C 18.066406 -31.402344 16.277344 -25.835938 15.542969 -21.742188 C 15.125 -19.746094 14.597656 -17.433594 14.492188 -16.59375 C 14.074219 -15.125 14.074219 -15.125 14.285156 -17.328125 Z M 16.070312 -16.175781 C 16.070312 -15.542969 15.964844 -14.703125 15.859375 -14.179688 C 15.230469 -12.289062 15.4375 -17.433594 16.175781 -20.796875 C 17.855469 -29.09375 22.476562 -40.960938 31.296875 -58.917969 C 32.976562 -62.59375 35.707031 -68.371094 37.179688 -71.839844 C 39.699219 -77.40625 40.539062 -79.503906 42.011719 -83.285156 C 42.117188 -83.8125 42.429688 -84.125 42.429688 -84.125 C 42.640625 -83.8125 40.433594 -77.507812 38.441406 -72.78125 C 36.128906 -67.320312 34.660156 -64.277344 31.191406 -57.34375 C 25.835938 -46.632812 21.214844 -35.707031 18.800781 -28.042969 C 17.539062 -24.15625 16.175781 -18.167969 16.070312 -16.175781 Z M 18.484375 -20.164062 C 17.75 -16.910156 17.539062 -16.488281 17.75 -18.167969 C 18.484375 -25.417969 23.316406 -38.125 33.398438 -58.917969 C 36.339844 -65.011719 38.859375 -70.472656 39.175781 -71.101562 C 39.386719 -71.734375 39.59375 -72.152344 39.699219 -72.046875 C 39.910156 -71.839844 36.023438 -63.015625 32.664062 -55.875 C 26.78125 -43.902344 23.105469 -35.289062 20.691406 -27.9375 C 20.058594 -25.941406 19.113281 -22.476562 18.484375 -20.164062 Z M 21.53125 -17.121094 C 21.214844 -15.753906 20.898438 -14.386719 20.796875 -14.285156 C 20.480469 -14.074219 20.691406 -15.332031 21.320312 -18.378906 C 21.949219 -21.003906 22.054688 -20.058594 21.53125 -17.121094 Z M 22.160156 -20.480469 C 22.054688 -20.375 21.949219 -20.585938 22.054688 -20.898438 C 22.054688 -21.320312 22.160156 -21.425781 22.265625 -21.109375 C 22.265625 -20.898438 22.265625 -20.585938 22.160156 -20.480469 Z M 22.582031 -21.84375 C 22.371094 -21.742188 22.371094 -21.949219 22.371094 -22.265625 C 22.371094 -22.6875 22.476562 -22.789062 22.582031 -22.476562 C 22.6875 -22.265625 22.6875 -21.949219 22.582031 -21.84375 Z M 22.6875 -31.507812 C 22.6875 -31.71875 22.789062 -32.136719 23 -32.347656 C 23.210938 -32.664062 23.316406 -32.769531 23.316406 -32.558594 C 23.316406 -32.347656 23.210938 -31.929688 23 -31.71875 C 22.789062 -31.402344 22.6875 -31.296875 22.6875 -31.507812 Z M 57.871094 -59.96875 C 58.394531 -60.601562 58.394531 -60.601562 57.972656 -59.863281 C 57.449219 -58.816406 57.34375 -58.605469 57.34375 -59.023438 C 57.34375 -59.234375 57.554688 -59.65625 57.871094 -59.96875 Z M 57.238281 -33.503906 C 57.34375 -33.292969 57.34375 -32.875 57.238281 -32.664062 C 57.132812 -32.453125 57.027344 -32.558594 57.027344 -33.082031 C 57.027344 -33.503906 57.132812 -33.714844 57.238281 -33.503906 Z M 47.578125 -44.742188 C 47.785156 -45.265625 48.101562 -45.792969 48.207031 -45.792969 C 48.3125 -45.792969 48.207031 -45.265625 47.890625 -44.742188 C 47.578125 -44.214844 47.261719 -43.691406 47.15625 -43.691406 C 47.050781 -43.691406 47.261719 -44.214844 47.578125 -44.742188 Z M 45.476562 -41.171875 C 46 -42.117188 46.632812 -42.957031 46.738281 -43.164062 C 46.945312 -43.375 46.738281 -42.746094 46.210938 -41.800781 C 45.6875 -40.855469 45.054688 -39.910156 44.847656 -39.804688 C 44.636719 -39.59375 44.953125 -40.226562 45.476562 -41.171875 Z M 43.796875 -38.230469 C 44.109375 -38.753906 44.425781 -39.28125 44.425781 -39.28125 C 44.53125 -39.28125 44.425781 -38.753906 44.109375 -38.230469 C 43.796875 -37.597656 43.480469 -37.179688 43.375 -37.179688 C 43.269531 -37.179688 43.480469 -37.597656 43.796875 -38.230469 Z M 38.964844 -27.832031 C 38.648438 -27.308594 38.335938 -26.886719 38.230469 -26.886719 C 38.019531 -26.886719 38.753906 -28.253906 39.175781 -28.460938 C 39.386719 -28.566406 39.28125 -28.253906 38.964844 -27.832031 Z M 42.957031 -34.238281 C 41.378906 -31.613281 39.910156 -29.300781 39.699219 -29.09375 C 39.488281 -28.882812 39.59375 -29.199219 39.910156 -29.617188 C 41.273438 -32.03125 45.054688 -38.335938 46.527344 -40.855469 C 47.367188 -42.429688 48.207031 -43.691406 48.3125 -43.691406 C 48.523438 -43.691406 46.421875 -40.015625 42.957031 -34.238281 Z M 48.941406 -24.785156 C 48.835938 -24.472656 48.835938 -24.679688 48.835938 -25.207031 C 48.835938 -25.625 48.835938 -25.835938 48.941406 -25.625 C 49.046875 -25.417969 49.046875 -24.996094 48.941406 -24.785156 Z M 48.835938 -46.316406 C 48.417969 -46 48.417969 -46.105469 48.628906 -46.527344 C 48.730469 -46.839844 48.941406 -47.050781 49.046875 -46.945312 C 49.152344 -46.839844 49.046875 -46.632812 48.835938 -46.316406 Z M 49.257812 -28.042969 C 49.675781 -32.136719 53.5625 -47.890625 53.5625 -45.582031 C 53.5625 -45.476562 52.933594 -42.851562 52.09375 -39.699219 C 51.359375 -36.550781 50.414062 -32.242188 49.886719 -30.140625 C 49.46875 -28.042969 49.152344 -27.203125 49.257812 -28.042969 Z M 54.929688 -44.109375 C 53.984375 -40.539062 52.722656 -35.605469 52.199219 -32.976562 C 51.566406 -30.351562 50.9375 -26.675781 50.621094 -24.785156 L 50.097656 -21.214844 L 50.308594 -24.367188 C 50.308594 -26.046875 50.832031 -29.300781 51.359375 -31.71875 C 53.039062 -40.015625 56.503906 -52.617188 56.609375 -50.832031 C 56.609375 -50.621094 55.875 -47.683594 54.929688 -44.109375 Z M 56.1875 -27.832031 C 56.085938 -27.621094 55.980469 -27.832031 55.980469 -28.253906 C 55.980469 -28.777344 56.085938 -28.882812 56.1875 -28.671875 C 56.292969 -28.460938 56.292969 -28.042969 56.1875 -27.832031 Z M 56.398438 -29.828125 C 56.398438 -30.140625 56.503906 -30.878906 56.609375 -31.402344 C 56.820312 -32.03125 56.925781 -32.03125 56.925781 -31.507812 C 56.925781 -31.191406 56.820312 -30.457031 56.609375 -29.933594 C 56.398438 -29.300781 56.398438 -29.300781 56.398438 -29.828125 Z M 90.742188 -44.53125 C 90.53125 -44.007812 90.21875 -43.902344 90.21875 -44.320312 C 90.21875 -44.53125 90.425781 -44.742188 90.636719 -44.953125 C 90.742188 -45.054688 90.847656 -44.847656 90.742188 -44.53125 Z M 91.582031 -46.105469 C 91.476562 -45.6875 91.164062 -45.371094 91.058594 -45.371094 C 90.953125 -45.371094 91.058594 -45.6875 91.269531 -46.105469 C 91.476562 -46.527344 91.6875 -46.839844 91.792969 -46.839844 C 91.898438 -46.839844 91.792969 -46.527344 91.582031 -46.105469 Z M 92.632812 -47.785156 C 92.421875 -47.472656 92.214844 -47.15625 92.109375 -47.15625 C 92.003906 -47.15625 92.109375 -47.472656 92.316406 -47.785156 C 92.527344 -48.207031 92.738281 -48.523438 92.84375 -48.523438 C 92.949219 -48.523438 92.84375 -48.207031 92.632812 -47.785156 Z M 98.828125 -54.195312 C 97.359375 -51.148438 95.890625 -48.417969 95.574219 -47.996094 C 95.257812 -47.578125 96.203125 -49.78125 97.78125 -52.828125 C 99.25 -55.769531 100.929688 -59.445312 101.558594 -60.914062 C 102.191406 -62.386719 102.820312 -63.539062 102.820312 -63.539062 C 103.03125 -63.226562 101.351562 -59.339844 98.828125 -54.195312 Z M 103.660156 -65.117188 C 103.660156 -64.90625 103.449219 -64.589844 103.347656 -64.277344 C 103.136719 -63.960938 102.925781 -63.960938 102.925781 -64.066406 C 102.925781 -64.277344 103.136719 -64.695312 103.347656 -65.011719 C 103.449219 -65.222656 103.660156 -65.328125 103.660156 -65.117188 Z M 91.371094 -55.453125 C 93.261719 -59.234375 95.992188 -65.011719 97.359375 -68.371094 C 98.726562 -71.734375 99.878906 -74.253906 99.878906 -74.042969 C 99.878906 -73.519531 96.308594 -64.382812 94.734375 -61.125 C 94 -59.445312 92.316406 -56.292969 91.164062 -54.089844 C 87.488281 -47.472656 87.59375 -48.207031 91.371094 -55.453125 Z M 81.921875 -36.550781 C 82.339844 -37.179688 84.335938 -40.644531 86.542969 -44.214844 C 93.367188 -55.664062 98.515625 -66.585938 101.980469 -76.355469 C 102.609375 -78.246094 103.136719 -79.609375 103.242188 -79.398438 C 103.347656 -78.980469 100.613281 -70.996094 98.621094 -65.957031 C 96.625 -61.230469 92.949219 -53.878906 90.53125 -49.992188 C 89.796875 -48.835938 89.273438 -47.683594 89.273438 -47.683594 C 89.273438 -47.578125 88.539062 -46.316406 87.59375 -44.953125 C 86.648438 -43.585938 85.175781 -41.273438 84.335938 -39.804688 C 83.390625 -38.230469 82.339844 -36.652344 82.027344 -36.128906 L 81.289062 -35.289062 Z M 80.660156 -34.449219 C 80.871094 -34.867188 81.082031 -35.078125 81.183594 -35.078125 C 81.289062 -35.078125 81.183594 -34.867188 80.976562 -34.449219 C 80.765625 -34.027344 80.554688 -33.714844 80.449219 -33.714844 C 80.34375 -33.714844 80.449219 -34.027344 80.660156 -34.449219 Z M 80.765625 -31.613281 C 86.332031 -40.121094 92.527344 -50.519531 95.890625 -57.132812 C 97.570312 -60.390625 98.933594 -63.121094 99.039062 -63.226562 C 99.566406 -63.855469 97.882812 -59.96875 95.046875 -54.507812 C 91.6875 -47.785156 87.171875 -40.332031 81.289062 -31.613281 C 79.398438 -28.777344 77.71875 -26.464844 77.507812 -26.363281 C 77.300781 -26.257812 78.769531 -28.566406 80.765625 -31.613281 Z M 80.765625 -31.613281 "/></g></g></g><g fill="#000000" fill-opacity="1"><g transform="translate(61.435669, 194.30962)"><g><path d="M 1.046875 0 L 1.046875 -0.890625 L 1.75 -0.890625 C 2.800781 -0.890625 3.445312 -0.976562 3.6875 -1.15625 C 3.925781 -1.332031 4.046875 -1.703125 4.046875 -2.265625 L 4.046875 -17.578125 C 4.046875 -18.140625 3.921875 -18.503906 3.671875 -18.671875 C 3.429688 -18.847656 2.789062 -18.9375 1.75 -18.9375 L 1.046875 -18.9375 L 1.046875 -19.859375 L 11.671875 -19.859375 C 13.523438 -19.859375 15.066406 -19.363281 16.296875 -18.375 C 17.523438 -17.382812 18.140625 -16.238281 18.140625 -14.9375 C 18.140625 -13.875 17.6875 -12.914062 16.78125 -12.0625 C 15.875 -11.207031 14.71875 -10.644531 13.3125 -10.375 C 14.914062 -10.207031 16.25 -9.632812 17.3125 -8.65625 C 18.382812 -7.6875 18.921875 -6.578125 18.921875 -5.328125 C 18.921875 -3.898438 18.304688 -2.65625 17.078125 -1.59375 C 15.859375 -0.53125 14.3125 0 12.4375 0 Z M 6.453125 -2.0625 C 6.453125 -1.5625 6.519531 -1.238281 6.65625 -1.09375 C 6.800781 -0.957031 7.207031 -0.890625 7.875 -0.890625 L 11.515625 -0.890625 C 12.898438 -0.890625 13.992188 -1.347656 14.796875 -2.265625 C 15.597656 -3.179688 16 -4.207031 16 -5.34375 C 16 -6.488281 15.644531 -7.550781 14.9375 -8.53125 C 14.238281 -9.507812 13.234375 -10 11.921875 -10 L 6.453125 -10 Z M 6.453125 -10.640625 L 10.671875 -10.640625 C 12.160156 -10.640625 13.304688 -11.085938 14.109375 -11.984375 C 14.910156 -12.890625 15.3125 -13.875 15.3125 -14.9375 C 15.3125 -15.882812 14.988281 -16.785156 14.34375 -17.640625 C 13.707031 -18.503906 12.753906 -18.9375 11.484375 -18.9375 L 7.875 -18.9375 C 7.207031 -18.9375 6.800781 -18.867188 6.65625 -18.734375 C 6.519531 -18.609375 6.453125 -18.289062 6.453125 -17.78125 Z M 6.453125 -10.640625 "/></g></g></g><g fill="#000000" fill-opacity="1"><g transform="translate(83.76228, 194.30962)"><g><path d="M 0.9375 0 L 0.9375 -0.890625 C 2.65625 -0.929688 3.738281 -1.585938 4.1875 -2.859375 L 10.203125 -20.21875 C 10.273438 -20.457031 10.351562 -20.613281 10.4375 -20.6875 C 10.53125 -20.757812 10.6875 -20.796875 10.90625 -20.796875 C 11.007812 -20.796875 11.097656 -20.785156 11.171875 -20.765625 C 11.242188 -20.753906 11.300781 -20.710938 11.34375 -20.640625 C 11.394531 -20.578125 11.429688 -20.523438 11.453125 -20.484375 C 11.472656 -20.453125 11.507812 -20.363281 11.5625 -20.21875 L 17.84375 -2.0625 C 17.988281 -1.570312 18.21875 -1.253906 18.53125 -1.109375 C 18.84375 -0.960938 19.441406 -0.890625 20.328125 -0.890625 L 20.828125 -0.890625 L 20.828125 0 C 19.609375 -0.0507812 18.34375 -0.078125 17.03125 -0.078125 C 14.9375 -0.078125 13.539062 -0.0507812 12.84375 0 L 12.84375 -0.890625 C 14.445312 -0.890625 15.25 -1.1875 15.25 -1.78125 C 15.25 -1.8125 15.222656 -1.945312 15.171875 -2.1875 L 13.640625 -6.625 L 6.453125 -6.625 L 5.109375 -2.828125 C 5.066406 -2.742188 5.046875 -2.597656 5.046875 -2.390625 C 5.046875 -1.984375 5.234375 -1.628906 5.609375 -1.328125 C 5.992188 -1.035156 6.535156 -0.890625 7.234375 -0.890625 L 7.234375 0 C 5.367188 -0.0507812 4.253906 -0.078125 3.890625 -0.078125 C 3.253906 -0.078125 2.269531 -0.0507812 0.9375 0 Z M 6.765625 -7.515625 L 13.3125 -7.515625 L 10.03125 -16.96875 Z M 6.765625 -7.515625 "/></g></g></g><g fill="#000000" fill-opacity="1"><g transform="translate(107.322976, 194.30962)"><g><path d="M 1.046875 0 L 1.046875 -0.890625 L 1.75 -0.890625 C 2.800781 -0.890625 3.445312 -0.976562 3.6875 -1.15625 C 3.925781 -1.332031 4.046875 -1.703125 4.046875 -2.265625 L 4.046875 -17.578125 C 4.046875 -18.140625 3.921875 -18.503906 3.671875 -18.671875 C 3.429688 -18.847656 2.789062 -18.9375 1.75 -18.9375 L 1.046875 -18.9375 L 1.046875 -19.859375 L 11.671875 -19.859375 C 13.523438 -19.859375 15.066406 -19.363281 16.296875 -18.375 C 17.523438 -17.382812 18.140625 -16.238281 18.140625 -14.9375 C 18.140625 -13.875 17.6875 -12.914062 16.78125 -12.0625 C 15.875 -11.207031 14.71875 -10.644531 13.3125 -10.375 C 14.914062 -10.207031 16.25 -9.632812 17.3125 -8.65625 C 18.382812 -7.6875 18.921875 -6.578125 18.921875 -5.328125 C 18.921875 -3.898438 18.304688 -2.65625 17.078125 -1.59375 C 15.859375 -0.53125 14.3125 0 12.4375 0 Z M 6.453125 -2.0625 C 6.453125 -1.5625 6.519531 -1.238281 6.65625 -1.09375 C 6.800781 -0.957031 7.207031 -0.890625 7.875 -0.890625 L 11.515625 -0.890625 C 12.898438 -0.890625 13.992188 -1.347656 14.796875 -2.265625 C 15.597656 -3.179688 16 -4.207031 16 -5.34375 C 16 -6.488281 15.644531 -7.550781 14.9375 -8.53125 C 14.238281 -9.507812 13.234375 -10 11.921875 -10 L 6.453125 -10 Z M 6.453125 -10.640625 L 10.671875 -10.640625 C 12.160156 -10.640625 13.304688 -11.085938 14.109375 -11.984375 C 14.910156 -12.890625 15.3125 -13.875 15.3125 -14.9375 C 15.3125 -15.882812 14.988281 -16.785156 14.34375 -17.640625 C 13.707031 -18.503906 12.753906 -18.9375 11.484375 -18.9375 L 7.875 -18.9375 C 7.207031 -18.9375 6.800781 -18.867188 6.65625 -18.734375 C 6.519531 -18.609375 6.453125 -18.289062 6.453125 -17.78125 Z M 6.453125 -10.640625 "/></g></g></g><g fill="#000000" fill-opacity="1"><g transform="translate(129.649588, 194.30962)"><g><path d="M 0.328125 -18.9375 L 0.328125 -19.859375 C 1.546875 -19.796875 2.800781 -19.765625 4.09375 -19.765625 C 6.257812 -19.765625 7.695312 -19.796875 8.40625 -19.859375 L 8.40625 -18.9375 C 7.6875 -18.9375 7.164062 -18.890625 6.84375 -18.796875 C 6.53125 -18.703125 6.375 -18.507812 6.375 -18.21875 C 6.375 -18.082031 6.4375 -17.914062 6.5625 -17.71875 L 11.828125 -9.15625 L 16.625 -16.9375 C 16.8125 -17.238281 16.910156 -17.53125 16.921875 -17.8125 C 16.921875 -18.144531 16.785156 -18.414062 16.515625 -18.625 C 16.242188 -18.832031 15.820312 -18.9375 15.25 -18.9375 L 15.25 -19.859375 C 16.769531 -19.796875 17.890625 -19.765625 18.609375 -19.765625 C 19.609375 -19.765625 20.550781 -19.796875 21.4375 -19.859375 L 21.4375 -18.9375 C 19.71875 -18.9375 18.476562 -18.3125 17.71875 -17.0625 L 12.125 -7.9375 L 12.125 -2.328125 C 12.125 -1.734375 12.242188 -1.34375 12.484375 -1.15625 C 12.722656 -0.976562 13.378906 -0.890625 14.453125 -0.890625 L 15.109375 -0.890625 L 15.109375 0 C 14.410156 -0.0507812 12.992188 -0.078125 10.859375 -0.078125 C 8.734375 -0.078125 7.320312 -0.0507812 6.625 0 L 6.625 -0.890625 L 7.328125 -0.890625 C 8.367188 -0.890625 9.007812 -0.976562 9.25 -1.15625 C 9.5 -1.332031 9.625 -1.703125 9.625 -2.265625 L 9.625 -7.9375 L 3.515625 -17.875 C 3.347656 -18.164062 3.195312 -18.375 3.0625 -18.5 C 2.925781 -18.625 2.679688 -18.726562 2.328125 -18.8125 C 1.972656 -18.894531 1.476562 -18.9375 0.84375 -18.9375 Z M 0.328125 -18.9375 "/></g></g></g><g fill="#000000" fill-opacity="1"><g transform="translate(153.210282, 194.30962)"><g><path d="M 2.90625 -17.546875 C 2.613281 -17.847656 2.46875 -18.207031 2.46875 -18.625 C 2.46875 -19.050781 2.613281 -19.414062 2.90625 -19.71875 C 3.195312 -20.019531 3.566406 -20.171875 4.015625 -20.171875 C 4.585938 -20.171875 5.050781 -19.894531 5.40625 -19.34375 C 5.769531 -18.789062 5.953125 -18.046875 5.953125 -17.109375 C 5.953125 -16.160156 5.757812 -15.222656 5.375 -14.296875 C 4.988281 -13.378906 4.585938 -12.6875 4.171875 -12.21875 C 3.753906 -11.75 3.445312 -11.515625 3.25 -11.515625 C 3.0625 -11.515625 2.96875 -11.609375 2.96875 -11.796875 C 2.96875 -11.867188 3.085938 -12.050781 3.328125 -12.34375 C 3.566406 -12.632812 3.832031 -12.960938 4.125 -13.328125 C 4.414062 -13.703125 4.679688 -14.226562 4.921875 -14.90625 C 5.171875 -15.582031 5.296875 -16.304688 5.296875 -17.078125 C 5.296875 -17.378906 5.285156 -17.59375 5.265625 -17.71875 C 4.898438 -17.3125 4.484375 -17.109375 4.015625 -17.109375 C 3.566406 -17.109375 3.195312 -17.253906 2.90625 -17.546875 Z M 2.90625 -17.546875 "/></g></g></g><g fill="#000000" fill-opacity="1"><g transform="translate(163.05414, 194.30962)"><g><path d="M 1.625 -0.0625 L 1.625 -5.875 C 1.625 -6.09375 1.628906 -6.238281 1.640625 -6.3125 C 1.648438 -6.382812 1.679688 -6.445312 1.734375 -6.5 C 1.796875 -6.5625 1.882812 -6.59375 2 -6.59375 C 2.21875 -6.59375 2.335938 -6.492188 2.359375 -6.296875 C 2.410156 -4.378906 3.007812 -2.890625 4.15625 -1.828125 C 5.28125 -0.773438 6.804688 -0.25 8.734375 -0.25 C 9.898438 -0.25 10.84375 -0.664062 11.5625 -1.5 C 12.28125 -2.34375 12.640625 -3.3125 12.640625 -4.40625 C 12.640625 -5.457031 12.335938 -6.351562 11.734375 -7.09375 C 11.484375 -7.425781 11.195312 -7.695312 10.875 -7.90625 C 10.5625 -8.125 10.304688 -8.265625 10.109375 -8.328125 C 9.910156 -8.390625 9.628906 -8.472656 9.265625 -8.578125 C 6.859375 -9.148438 5.582031 -9.46875 5.4375 -9.53125 C 4.289062 -9.925781 3.367188 -10.613281 2.671875 -11.59375 C 1.972656 -12.570312 1.625 -13.660156 1.625 -14.859375 C 1.625 -16.410156 2.171875 -17.734375 3.265625 -18.828125 C 4.359375 -19.929688 5.703125 -20.484375 7.296875 -20.484375 C 8.085938 -20.484375 8.816406 -20.359375 9.484375 -20.109375 C 10.148438 -19.859375 10.617188 -19.617188 10.890625 -19.390625 C 11.171875 -19.171875 11.523438 -18.859375 11.953125 -18.453125 L 12.953125 -20.109375 C 13.109375 -20.359375 13.253906 -20.484375 13.390625 -20.484375 C 13.546875 -20.484375 13.640625 -20.4375 13.671875 -20.34375 C 13.703125 -20.257812 13.71875 -20.078125 13.71875 -19.796875 L 13.71875 -13.953125 C 13.71875 -13.734375 13.710938 -13.582031 13.703125 -13.5 C 13.691406 -13.425781 13.65625 -13.363281 13.59375 -13.3125 C 13.539062 -13.269531 13.457031 -13.25 13.34375 -13.25 C 13.15625 -13.25 13.035156 -13.363281 12.984375 -13.59375 C 12.441406 -17.644531 10.554688 -19.671875 7.328125 -19.671875 C 6.210938 -19.671875 5.289062 -19.296875 4.5625 -18.546875 C 3.84375 -17.804688 3.484375 -16.910156 3.484375 -15.859375 C 3.484375 -15.015625 3.75 -14.242188 4.28125 -13.546875 C 4.8125 -12.847656 5.523438 -12.390625 6.421875 -12.171875 L 10.140625 -11.28125 C 11.378906 -10.988281 12.414062 -10.289062 13.25 -9.1875 C 14.082031 -8.09375 14.5 -6.832031 14.5 -5.40625 C 14.5 -3.757812 13.960938 -2.335938 12.890625 -1.140625 C 11.816406 0.046875 10.441406 0.640625 8.765625 0.640625 C 7.566406 0.640625 6.503906 0.441406 5.578125 0.046875 C 4.648438 -0.347656 3.9375 -0.828125 3.4375 -1.390625 C 3.050781 -0.742188 2.726562 -0.242188 2.46875 0.109375 L 2.390625 0.25 C 2.234375 0.507812 2.082031 0.640625 1.9375 0.640625 C 1.789062 0.640625 1.703125 0.59375 1.671875 0.5 C 1.640625 0.40625 1.625 0.21875 1.625 -0.0625 Z M 1.625 -0.0625 "/></g></g></g><g fill="#000000" fill-opacity="1"><g transform="translate(180.940854, 194.30962)"><g/></g></g><g fill="#000000" fill-opacity="1"><g transform="translate(192.37342, 194.30962)"><g><path d="M 0.53125 -18.9375 L 0.53125 -19.859375 C 0.800781 -19.859375 1.179688 -19.847656 1.671875 -19.828125 C 2.160156 -19.804688 2.597656 -19.789062 2.984375 -19.78125 C 3.378906 -19.769531 3.742188 -19.765625 4.078125 -19.765625 C 6.128906 -19.765625 7.503906 -19.796875 8.203125 -19.859375 L 8.203125 -18.9375 C 6.578125 -18.9375 5.765625 -18.648438 5.765625 -18.078125 C 5.765625 -17.941406 5.78125 -17.816406 5.8125 -17.703125 L 10.484375 -3.40625 L 14.53125 -15.859375 L 13.890625 -17.90625 C 13.742188 -18.382812 13.503906 -18.675781 13.171875 -18.78125 C 12.835938 -18.882812 12.207031 -18.9375 11.28125 -18.9375 L 11.28125 -19.859375 C 11.550781 -19.859375 11.929688 -19.847656 12.421875 -19.828125 C 12.921875 -19.804688 13.363281 -19.789062 13.75 -19.78125 C 14.132812 -19.769531 14.488281 -19.765625 14.8125 -19.765625 C 16.863281 -19.765625 18.238281 -19.796875 18.9375 -19.859375 L 18.9375 -18.9375 C 17.3125 -18.9375 16.5 -18.648438 16.5 -18.078125 C 16.5 -18.023438 16.53125 -17.878906 16.59375 -17.640625 L 21.25 -3.40625 L 25.59375 -16.828125 C 25.6875 -17.117188 25.738281 -17.3125 25.75 -17.40625 C 25.75 -17.757812 25.546875 -18.097656 25.140625 -18.421875 C 24.734375 -18.753906 24.09375 -18.925781 23.21875 -18.9375 L 23.21875 -19.859375 C 24.726562 -19.796875 25.878906 -19.765625 26.671875 -19.765625 C 27.566406 -19.765625 28.445312 -19.796875 29.3125 -19.859375 L 29.3125 -18.9375 C 27.78125 -18.9375 26.816406 -18.289062 26.421875 -17 L 20.859375 0.0625 C 20.816406 0.207031 20.78125 0.316406 20.75 0.390625 C 20.726562 0.460938 20.675781 0.519531 20.59375 0.5625 C 20.519531 0.613281 20.421875 0.640625 20.296875 0.640625 C 20.035156 0.640625 19.847656 0.453125 19.734375 0.078125 L 14.921875 -14.703125 L 10.125 0.0625 C 10.082031 0.207031 10.046875 0.316406 10.015625 0.390625 C 9.984375 0.460938 9.925781 0.519531 9.84375 0.5625 C 9.769531 0.613281 9.664062 0.640625 9.53125 0.640625 C 9.28125 0.640625 9.097656 0.453125 8.984375 0.078125 L 3.171875 -17.71875 C 2.992188 -18.28125 2.773438 -18.625 2.515625 -18.75 C 2.253906 -18.875 1.59375 -18.9375 0.53125 -18.9375 Z M 0.53125 -18.9375 "/></g></g></g><g fill="#000000" fill-opacity="1"><g transform="translate(223.976987, 194.30962)"><g><path d="M 1.625 -9.84375 C 1.625 -12.8125 2.570312 -15.328125 4.46875 -17.390625 C 6.375 -19.453125 8.644531 -20.484375 11.28125 -20.484375 C 13.9375 -20.484375 16.210938 -19.445312 18.109375 -17.375 C 20.003906 -15.3125 20.953125 -12.800781 20.953125 -9.84375 C 20.953125 -6.925781 20 -4.445312 18.09375 -2.40625 C 16.195312 -0.375 13.925781 0.640625 11.28125 0.640625 C 8.664062 0.640625 6.398438 -0.367188 4.484375 -2.390625 C 2.578125 -4.421875 1.625 -6.90625 1.625 -9.84375 Z M 4.625 -10.265625 C 4.625 -8.460938 4.835938 -6.875 5.265625 -5.5 C 5.691406 -4.125 6.25 -3.0625 6.9375 -2.3125 C 7.625 -1.5625 8.332031 -1.003906 9.0625 -0.640625 C 9.800781 -0.285156 10.550781 -0.109375 11.3125 -0.109375 C 12.050781 -0.109375 12.78125 -0.28125 13.5 -0.625 C 14.226562 -0.976562 14.9375 -1.523438 15.625 -2.265625 C 16.3125 -3.003906 16.875 -4.0625 17.3125 -5.4375 C 17.75 -6.820312 17.96875 -8.429688 17.96875 -10.265625 C 17.96875 -11.679688 17.816406 -12.957031 17.515625 -14.09375 C 17.210938 -15.238281 16.820312 -16.15625 16.34375 -16.84375 C 15.875 -17.53125 15.332031 -18.101562 14.71875 -18.5625 C 14.113281 -19.019531 13.523438 -19.332031 12.953125 -19.5 C 12.378906 -19.675781 11.820312 -19.765625 11.28125 -19.765625 C 10.601562 -19.765625 9.90625 -19.613281 9.1875 -19.3125 C 8.476562 -19.007812 7.765625 -18.523438 7.046875 -17.859375 C 6.335938 -17.191406 5.753906 -16.203125 5.296875 -14.890625 C 4.847656 -13.578125 4.625 -12.035156 4.625 -10.265625 Z M 4.625 -10.265625 "/></g></g></g><g fill="#000000" fill-opacity="1"><g transform="translate(248.317859, 194.30962)"><g><path d="M 1.015625 0 L 1.015625 -0.890625 L 1.71875 -0.890625 C 2.769531 -0.890625 3.414062 -0.976562 3.65625 -1.15625 C 3.894531 -1.332031 4.015625 -1.703125 4.015625 -2.265625 L 4.015625 -17.578125 C 4.015625 -18.140625 3.890625 -18.503906 3.640625 -18.671875 C 3.398438 -18.847656 2.757812 -18.9375 1.71875 -18.9375 L 1.015625 -18.9375 L 1.015625 -19.859375 L 10.140625 -19.859375 C 12.253906 -19.859375 14.046875 -19.335938 15.515625 -18.296875 C 16.984375 -17.265625 17.71875 -16.035156 17.71875 -14.609375 C 17.71875 -13.523438 17.238281 -12.554688 16.28125 -11.703125 C 15.332031 -10.859375 14.117188 -10.25 12.640625 -9.875 C 14.566406 -9.21875 15.75 -8.097656 16.1875 -6.515625 L 16.5625 -4.1875 C 16.632812 -3.625 16.695312 -3.203125 16.75 -2.921875 C 16.800781 -2.640625 16.867188 -2.300781 16.953125 -1.90625 C 17.035156 -1.519531 17.125 -1.234375 17.21875 -1.046875 C 17.3125 -0.867188 17.421875 -0.679688 17.546875 -0.484375 C 17.679688 -0.296875 17.835938 -0.164062 18.015625 -0.09375 C 18.191406 -0.03125 18.394531 0 18.625 0 C 19.070312 0 19.484375 -0.195312 19.859375 -0.59375 C 20.242188 -0.988281 20.472656 -1.648438 20.546875 -2.578125 C 20.585938 -2.890625 20.707031 -3.046875 20.90625 -3.046875 C 21.144531 -3.046875 21.265625 -2.890625 21.265625 -2.578125 C 21.265625 -2.304688 21.226562 -2.007812 21.15625 -1.6875 C 21.082031 -1.375 20.953125 -1.03125 20.765625 -0.65625 C 20.578125 -0.289062 20.285156 0.015625 19.890625 0.265625 C 19.492188 0.515625 19.035156 0.640625 18.515625 0.640625 C 17.003906 0.640625 15.785156 0.234375 14.859375 -0.578125 C 14.472656 -0.929688 14.191406 -1.332031 14.015625 -1.78125 C 13.835938 -2.238281 13.734375 -2.644531 13.703125 -3 C 13.679688 -3.363281 13.671875 -3.941406 13.671875 -4.734375 C 13.671875 -5.859375 13.609375 -6.664062 13.484375 -7.15625 C 13.367188 -7.65625 13.0625 -8.144531 12.5625 -8.625 C 11.875 -9.289062 10.96875 -9.625 9.84375 -9.625 L 6.515625 -9.625 L 6.515625 -2.265625 C 6.515625 -1.710938 6.632812 -1.34375 6.875 -1.15625 C 7.113281 -0.976562 7.757812 -0.890625 8.8125 -0.890625 L 9.5 -0.890625 L 9.5 0 C 8.800781 -0.0507812 7.390625 -0.078125 5.265625 -0.078125 C 3.140625 -0.078125 1.722656 -0.0507812 1.015625 0 Z M 6.515625 -10.265625 L 9.734375 -10.265625 C 10.765625 -10.265625 11.628906 -10.390625 12.328125 -10.640625 C 13.023438 -10.890625 13.535156 -11.238281 13.859375 -11.6875 C 14.191406 -12.144531 14.421875 -12.601562 14.546875 -13.0625 C 14.671875 -13.519531 14.734375 -14.035156 14.734375 -14.609375 C 14.734375 -15.296875 14.65625 -15.894531 14.5 -16.40625 C 14.351562 -16.914062 14.113281 -17.320312 13.78125 -17.625 C 13.445312 -17.925781 13.113281 -18.171875 12.78125 -18.359375 C 12.457031 -18.554688 12.035156 -18.691406 11.515625 -18.765625 C 11.003906 -18.847656 10.570312 -18.894531 10.21875 -18.90625 C 9.875 -18.925781 9.425781 -18.9375 8.875 -18.9375 C 7.925781 -18.9375 7.351562 -18.921875 7.15625 -18.890625 C 6.9375 -18.867188 6.78125 -18.804688 6.6875 -18.703125 C 6.601562 -18.597656 6.550781 -18.484375 6.53125 -18.359375 C 6.519531 -18.242188 6.515625 -18.050781 6.515625 -17.78125 Z M 6.515625 -10.265625 "/></g></g></g><g fill="#000000" fill-opacity="1"><g transform="translate(271.467196, 194.30962)"><g><path d="M 0.96875 0 L 0.96875 -0.890625 L 1.65625 -0.890625 C 2.707031 -0.890625 3.351562 -0.976562 3.59375 -1.15625 C 3.832031 -1.332031 3.953125 -1.703125 3.953125 -2.265625 L 3.953125 -17.578125 C 3.953125 -18.140625 3.828125 -18.503906 3.578125 -18.671875 C 3.335938 -18.847656 2.695312 -18.9375 1.65625 -18.9375 L 0.96875 -18.9375 L 0.96875 -19.859375 C 1.644531 -19.796875 3.113281 -19.765625 5.375 -19.765625 C 7.925781 -19.765625 9.554688 -19.796875 10.265625 -19.859375 L 10.265625 -18.9375 L 9.296875 -18.9375 C 8.410156 -18.9375 7.757812 -18.878906 7.34375 -18.765625 C 6.9375 -18.660156 6.703125 -18.53125 6.640625 -18.375 C 6.578125 -18.21875 6.546875 -17.941406 6.546875 -17.546875 L 6.546875 -2.0625 C 6.546875 -1.5625 6.617188 -1.238281 6.765625 -1.09375 C 6.910156 -0.957031 7.3125 -0.890625 7.96875 -0.890625 L 10.34375 -0.890625 C 11.332031 -0.890625 12.179688 -1.035156 12.890625 -1.328125 C 13.597656 -1.628906 14.140625 -1.960938 14.515625 -2.328125 C 14.890625 -2.691406 15.203125 -3.222656 15.453125 -3.921875 C 15.710938 -4.617188 15.878906 -5.1875 15.953125 -5.625 C 16.035156 -6.070312 16.113281 -6.695312 16.1875 -7.5 L 16.921875 -7.5 L 16.109375 0 Z M 0.96875 0 "/></g></g></g><g fill="#000000" fill-opacity="1"><g transform="translate(291.396554, 194.30962)"><g><path d="M 1.015625 0 L 1.015625 -0.890625 L 1.71875 -0.890625 C 2.769531 -0.890625 3.414062 -0.976562 3.65625 -1.15625 C 3.894531 -1.332031 4.015625 -1.703125 4.015625 -2.265625 L 4.015625 -17.578125 C 4.015625 -18.140625 3.890625 -18.503906 3.640625 -18.671875 C 3.398438 -18.847656 2.757812 -18.9375 1.71875 -18.9375 L 1.015625 -18.9375 L 1.015625 -19.859375 L 11.65625 -19.859375 C 14.132812 -19.859375 16.234375 -18.867188 17.953125 -16.890625 C 19.679688 -14.910156 20.546875 -12.535156 20.546875 -9.765625 C 20.546875 -7.046875 19.675781 -4.738281 17.9375 -2.84375 C 16.207031 -0.945312 14.113281 0 11.65625 0 Z M 6.515625 -2.0625 C 6.515625 -1.5625 6.582031 -1.238281 6.71875 -1.09375 C 6.863281 -0.957031 7.269531 -0.890625 7.9375 -0.890625 L 10.875 -0.890625 C 12.144531 -0.890625 13.210938 -1.148438 14.078125 -1.671875 C 14.941406 -2.203125 15.59375 -2.769531 16.03125 -3.375 C 17.101562 -4.832031 17.640625 -6.960938 17.640625 -9.765625 C 17.640625 -12.703125 17.140625 -14.863281 16.140625 -16.25 C 14.835938 -18.039062 13.070312 -18.9375 10.84375 -18.9375 L 7.9375 -18.9375 C 7.269531 -18.9375 6.863281 -18.867188 6.71875 -18.734375 C 6.582031 -18.609375 6.515625 -18.289062 6.515625 -17.78125 Z M 6.515625 -2.0625 "/></g></g></g><g fill="#000000" fill-opacity="1"><g transform="translate(20.961101, 226.636656)"><g><path d="M 0.773438 0 L 2.429688 0 L 2.429688 -3.910156 L 6.175781 -3.910156 L 6.175781 -5.230469 L 2.429688 -5.230469 L 2.429688 -8.003906 L 6.976562 -8.003906 L 6.976562 -9.460938 L 0.773438 -9.460938 Z M 0.773438 0 "/></g></g></g><g fill="#000000" fill-opacity="1"><g transform="translate(38.863897, 226.636656)"><g><path d="M 5.589844 0.332031 C 8.710938 0.332031 10.753906 -1.667969 10.753906 -4.722656 C 10.753906 -7.777344 8.710938 -9.792969 5.589844 -9.792969 C 2.46875 -9.792969 0.441406 -7.777344 0.441406 -4.722656 C 0.441406 -1.667969 2.46875 0.332031 5.589844 0.332031 Z M 5.589844 -1.109375 C 3.480469 -1.109375 2.09375 -2.546875 2.09375 -4.722656 C 2.09375 -6.898438 3.480469 -8.339844 5.589844 -8.339844 C 7.699219 -8.339844 9.085938 -6.898438 9.085938 -4.722656 C 9.085938 -2.546875 7.699219 -1.109375 5.589844 -1.109375 Z M 5.589844 -1.109375 "/></g></g></g><g fill="#000000" fill-opacity="1"><g transform="translate(60.72747, 226.636656)"><g><path d="M 5.589844 0.332031 C 8.710938 0.332031 10.753906 -1.667969 10.753906 -4.722656 C 10.753906 -7.777344 8.710938 -9.792969 5.589844 -9.792969 C 2.46875 -9.792969 0.441406 -7.777344 0.441406 -4.722656 C 0.441406 -1.667969 2.46875 0.332031 5.589844 0.332031 Z M 5.589844 -1.109375 C 3.480469 -1.109375 2.09375 -2.546875 2.09375 -4.722656 C 2.09375 -6.898438 3.480469 -8.339844 5.589844 -8.339844 C 7.699219 -8.339844 9.085938 -6.898438 9.085938 -4.722656 C 9.085938 -2.546875 7.699219 -1.109375 5.589844 -1.109375 Z M 5.589844 -1.109375 "/></g></g></g><g fill="#000000" fill-opacity="1"><g transform="translate(82.591045, 226.636656)"><g><path d="M 0.773438 0 L 4.417969 0 C 7.660156 0 9.445312 -1.695312 9.445312 -4.722656 C 9.445312 -7.765625 7.660156 -9.460938 4.417969 -9.460938 L 0.773438 -9.460938 Z M 2.402344 -1.386719 L 2.402344 -8.070312 L 4.417969 -8.070312 C 6.578125 -8.070312 7.777344 -6.882812 7.777344 -4.722656 C 7.777344 -2.574219 6.578125 -1.386719 4.417969 -1.386719 Z M 2.402344 -1.386719 "/></g></g></g><g fill="#000000" fill-opacity="1"><g transform="translate(103.1477, 226.636656)"><g><path d="M 1.441406 0.160156 C 2 0.160156 2.414062 -0.238281 2.414062 -0.800781 C 2.414062 -1.347656 2 -1.734375 1.441406 -1.734375 C 0.867188 -1.734375 0.46875 -1.347656 0.46875 -0.800781 C 0.46875 -0.238281 0.867188 0.160156 1.441406 0.160156 Z M 1.441406 0.160156 "/></g></g></g><g fill="#000000" fill-opacity="1"><g transform="translate(116.702986, 226.636656)"><g><path d="M 3.175781 0 L 4.828125 0 L 4.828125 -8.003906 L 7.832031 -8.003906 L 7.832031 -9.460938 L 0.160156 -9.460938 L 0.160156 -8.003906 L 3.175781 -8.003906 Z M 3.175781 0 "/></g></g></g><g fill="#000000" fill-opacity="1"><g transform="translate(135.379273, 226.636656)"><g><path d="M 7.710938 0.253906 C 8.417969 0.253906 9.046875 -0.078125 9.472656 -0.585938 L 8.953125 -1.441406 C 8.753906 -1.132812 8.472656 -0.933594 8.207031 -0.933594 C 7.910156 -0.933594 7.726562 -1.160156 7.644531 -1.46875 L 7.257812 -2.882812 C 7.097656 -3.429688 6.804688 -3.855469 6.296875 -4.082031 L 6.296875 -4.097656 C 7.804688 -4.363281 8.710938 -5.351562 8.710938 -6.644531 C 8.710938 -8.324219 7.3125 -9.460938 5.230469 -9.460938 L 0.773438 -9.460938 L 0.773438 0 L 2.429688 0 L 2.429688 -3.789062 L 4.375 -3.789062 C 4.976562 -3.789062 5.429688 -3.335938 5.617188 -2.707031 L 6.109375 -1.015625 C 6.335938 -0.253906 6.871094 0.253906 7.710938 0.253906 Z M 2.429688 -5.058594 L 2.429688 -8.140625 L 5.082031 -8.140625 C 6.257812 -8.140625 7.042969 -7.5 7.042969 -6.589844 C 7.042969 -5.671875 6.257812 -5.058594 5.082031 -5.058594 Z M 2.429688 -5.058594 "/></g></g></g><g fill="#000000" fill-opacity="1"><g transform="translate(155.549186, 226.636656)"><g><path d="M 0.105469 0 L 1.855469 0 L 2.601562 -2.066406 L 6.726562 -2.066406 L 7.457031 0 L 9.207031 0 L 5.683594 -9.460938 L 3.65625 -9.460938 Z M 2.960938 -3.363281 L 4.65625 -8.019531 L 4.683594 -8.019531 L 6.351562 -3.363281 Z M 2.960938 -3.363281 "/></g></g></g><g fill="#000000" fill-opacity="1"><g transform="translate(175.532389, 226.636656)"><g><path d="M 3.640625 0 L 5.5625 0 L 9.113281 -9.460938 L 7.363281 -9.460938 L 4.628906 -1.585938 L 4.601562 -1.585938 L 1.839844 -9.460938 L 0.105469 -9.460938 Z M 3.640625 0 "/></g></g></g><g fill="#000000" fill-opacity="1"><g transform="translate(195.422242, 226.636656)"><g><path d="M 0.773438 0 L 7.457031 0 L 7.457031 -1.386719 L 2.375 -1.386719 L 2.375 -4.230469 L 6.792969 -4.230469 L 6.792969 -5.496094 L 2.375 -5.496094 L 2.375 -8.070312 L 7.324219 -8.070312 L 7.324219 -9.460938 L 0.773438 -9.460938 Z M 0.773438 0 "/></g></g></g><g fill="#000000" fill-opacity="1"><g transform="translate(213.858489, 226.636656)"><g><path d="M 0.773438 0 L 6.832031 0 L 6.832031 -1.441406 L 2.429688 -1.441406 L 2.429688 -9.460938 L 0.773438 -9.460938 Z M 0.773438 0 "/></g></g></g><g fill="#000000" fill-opacity="1"><g transform="translate(231.534574, 226.636656)"><g><path d="M 1.441406 0.160156 C 2 0.160156 2.414062 -0.238281 2.414062 -0.800781 C 2.414062 -1.347656 2 -1.734375 1.441406 -1.734375 C 0.867188 -1.734375 0.46875 -1.347656 0.46875 -0.800781 C 0.46875 -0.238281 0.867188 0.160156 1.441406 0.160156 Z M 1.441406 0.160156 "/></g></g></g><g fill="#000000" fill-opacity="1"><g transform="translate(245.089871, 226.636656)"><g><path d="M 0.773438 0 L 5.390625 0 C 7.5 0 8.699219 -0.960938 8.699219 -2.628906 C 8.699219 -3.828125 8.058594 -4.628906 6.898438 -4.855469 L 6.898438 -4.871094 C 7.886719 -5.125 8.445312 -5.855469 8.445312 -6.882812 C 8.445312 -8.527344 7.3125 -9.460938 5.335938 -9.460938 L 0.773438 -9.460938 Z M 2.429688 -5.445312 L 2.429688 -8.140625 L 5.097656 -8.140625 C 6.175781 -8.140625 6.792969 -7.632812 6.792969 -6.792969 C 6.792969 -5.9375 6.175781 -5.445312 5.097656 -5.445312 Z M 2.429688 -1.320312 L 2.429688 -4.242188 L 5.125 -4.242188 C 6.335938 -4.242188 7.042969 -3.695312 7.042969 -2.773438 C 7.042969 -1.839844 6.335938 -1.320312 5.125 -1.320312 Z M 2.429688 -1.320312 "/></g></g></g><g fill="#000000" fill-opacity="1"><g transform="translate(264.833034, 226.636656)"><g><path d="M 0.773438 0 L 7.457031 0 L 7.457031 -1.386719 L 2.375 -1.386719 L 2.375 -4.230469 L 6.792969 -4.230469 L 6.792969 -5.496094 L 2.375 -5.496094 L 2.375 -8.070312 L 7.324219 -8.070312 L 7.324219 -9.460938 L 0.773438 -9.460938 Z M 0.773438 0 "/></g></g></g><g fill="#000000" fill-opacity="1"><g transform="translate(283.269282, 226.636656)"><g><path d="M 0.105469 0 L 1.855469 0 L 2.601562 -2.066406 L 6.726562 -2.066406 L 7.457031 0 L 9.207031 0 L 5.683594 -9.460938 L 3.65625 -9.460938 Z M 2.960938 -3.363281 L 4.65625 -8.019531 L 4.683594 -8.019531 L 6.351562 -3.363281 Z M 2.960938 -3.363281 "/></g></g></g><g fill="#000000" fill-opacity="1"><g transform="translate(303.252495, 226.636656)"><g><path d="M 4.683594 0.332031 C 7.125 0.332031 8.710938 -1.214844 8.710938 -3.589844 L 8.710938 -9.460938 L 7.042969 -9.460938 L 7.042969 -3.617188 C 7.042969 -2.121094 6.125 -1.109375 4.683594 -1.109375 C 3.230469 -1.109375 2.320312 -2.214844 2.320312 -3.617188 L 2.320312 -9.460938 L 0.652344 -9.460938 L 0.652344 -3.589844 C 0.652344 -1.214844 2.226562 0.332031 4.683594 0.332031 Z M 4.683594 0.332031 "/></g></g></g><g fill="#000000" fill-opacity="1"><g transform="translate(323.289039, 226.636656)"><g><path d="M 3.175781 0 L 4.828125 0 L 4.828125 -8.003906 L 7.832031 -8.003906 L 7.832031 -9.460938 L 0.160156 -9.460938 L 0.160156 -8.003906 L 3.175781 -8.003906 Z M 3.175781 0 "/></g></g></g><g fill="#000000" fill-opacity="1"><g transform="translate(341.965337, 226.636656)"><g><path d="M 3.46875 0 L 5.125 0 L 5.125 -3.429688 L 8.460938 -9.460938 L 6.644531 -9.460938 L 4.324219 -4.9375 L 4.296875 -4.9375 L 1.882812 -9.460938 L 0.105469 -9.460938 L 3.46875 -3.429688 Z M 3.46875 0 "/></g></g></g></svg>